<svg width="20" height="20" viewBox="0 0 20 20" fill="none" xmlns="http://www.w3.org/2000/svg">
<path d="M13.7495 0L6.24951 0C2.79826 0 -0.000488281 2.79875 -0.000488281 6.25L-0.000488281 13.75C-0.000488281 17.2013 2.79826 20 6.24951 20L13.7495 20C17.2008 20 19.9995 17.2013 19.9995 13.75L19.9995 6.25C19.9995 2.79875 17.2008 0 13.7495 0ZM18.1245 13.75C18.1245 16.1625 16.162 18.125 13.7495 18.125L6.24951 18.125C3.83701 18.125 1.87451 16.1625 1.87451 13.75L1.87451 6.25C1.87451 3.8375 3.83701 1.875 6.24951 1.875L13.7495 1.875C16.162 1.875 18.1245 3.8375 18.1245 6.25L18.1245 13.75Z" fill="black"/>
<path d="M9.99951 5C7.23826 5 4.99951 7.23875 4.99951 10C4.99951 12.7613 7.23826 15 9.99951 15C12.7608 15 14.9995 12.7613 14.9995 10C14.9995 7.23875 12.7608 5 9.99951 5ZM9.99951 13.125C8.27701 13.125 6.87451 11.7225 6.87451 10C6.87451 8.27625 8.27701 6.875 9.99951 6.875C11.722 6.875 13.1245 8.27625 13.1245 10C13.1245 11.7225 11.722 13.125 9.99951 13.125Z" fill="black"/>
<path d="M15.3745 5.29123C15.7425 5.29123 16.0408 4.99295 16.0408 4.62499C16.0408 4.25703 15.7425 3.95874 15.3745 3.95874C15.0065 3.95874 14.7083 4.25703 14.7083 4.62499C14.7083 4.99295 15.0065 5.29123 15.3745 5.29123Z" fill="black"/>
</svg>
